<svg xmlns="http://www.w3.org/2000/svg" xmlns:xlink="http://www.w3.org/1999/xlink" class="ldi-xnsxfy" width="200px" height="200px" viewBox="0 0 100 100" preserveAspectRatio="xMidYMid" style="background: none;"><!--?xml version="1.0" encoding="utf-8"?--><!--Generator: Adobe Illustrator 21.0.0, SVG Export Plug-In . SVG Version: 6.00 Build 0)--><svg xmlns="http://www.w3.org/2000/svg" xmlns:xlink="http://www.w3.org/1999/xlink" version="1.1" id="圖層_1" x="0px" y="0px" viewBox="0 0 100 100" style="transform-origin: 50px 50px 0px;" xml:space="preserve"><g style="transform-origin: 50px 50px 0px;"><g style="transform-origin: 50px 50px 0px; transform: scale(0.6);"><g style="transform-origin: 50px 50px 0px;"><g><style type="text/css" class="ld ld-blink" style="transform-origin: 50px 50px 0px; animation-duration: 1s; animation-delay: -1s; animation-direction: normal;">.st0{fill:#662D91;} .st1{fill:#A0C8D7;} .st2{fill:#ABBD81;} .st3{fill:#F47E60;} .st4{fill:#FFDC6C;} .st5{fill:#E15B64;} .st6{fill:#F2F2F2;} .st7{fill:#FCEE21;} .st8{fill:#EEF4DC;} .st9{fill:#F5E6C8;} .st10{fill:#C33737;} .st11{fill:#333333;} .st12{fill:#666666;} .st13{fill:#CCCCCC;} .st14{fill:#FFC28A;} .st15{fill:#4D4D4D;} .st16{fill:#999999;} .st17{fill:#29ABE2;} .st18{fill:#166496;} .st19{fill:#0071BC;} .st20{fill:#F7931E;} .st21{fill:#3E4D8A;} .st22{fill:#ED1E79;} .st23{fill:#9E005D;} .st24{fill:#D4145A;} .st25{fill:none;} .st26{fill:#ED1C24;} .st27{fill:#F15A24;} .st28{fill:#FBB03B;} .st29{fill:#C7B299;} .st30{fill:none;stroke:#FFFFFF;stroke-width:4;stroke-linecap:round;stroke-miterlimit:10;} .st31{fill:#C69C6D;} .st32{fill:#808080;} .st33{fill:#39B54A;} .st34{fill:#FFFFFF;} .st35{fill:#F6FF3F;} .st36{fill:#FF0000;} .st37{fill:#603813;} .st38{fill:#42210B;} .st39{fill:#1A1A1A;} .st40{fill:#FFD6B0;} .st41{fill:#C28851;} .st42{fill:#FFC28A;stroke:#FFFFFF;stroke-width:2;stroke-miterlimit:10;} .st43{fill:#009245;} .st44{fill:none;stroke:#333333;stroke-linecap:round;stroke-miterlimit:10;} .st45{fill:#E0E0E0;} .st46{fill:#C59B6D;} .st47{fill:#3399CC;} .st48{fill:#9F69B8;} .st49{fill:#EFBF4E;} .st50{fill:#353035;} .st51{fill:#77A4BD;} .st52{fill:#131F25;} .st53{fill:#494B32;} .st54{fill:none;stroke:#754C24;stroke-miterlimit:10;} .st55{fill:#754C24;} .st56{fill:#B2A44F;} .st57{fill:#48462D;} .st58{opacity:0.6;fill:#F73D7E;} .st59{opacity:0.8;fill:#F73D7E;} .st60{fill:#F73D7E;} .st61{opacity:0.59;fill:#3399CC;} .st62{fill:#DBDBDB;} .st63{fill:#3FAB4B;} .st64{fill:#E3A735;} .st65{fill:#E48E11;} .st66{fill:#A67C52;} .st67{fill:#8C6239;} .st68{fill:#666666;stroke:#F2F2F2;stroke-width:1.5;stroke-miterlimit:10;} .st69{fill:none;stroke:#333333;stroke-width:1.5;stroke-miterlimit:10;} .st70{fill:#62A562;} .st71{opacity:0.76;fill:#2E6045;} .st72{fill:#2E6045;} .st73{opacity:0.8;fill:#2E6045;} .st74{fill:#F8B26A;stroke:#231815;stroke-miterlimit:10;} .st75{fill:#F1F5DB;} .st76{fill:#FEAE01;} .st77{fill:#FF9400;} .st78{fill:none;stroke:#B3B3B3;stroke-width:3;stroke-miterlimit:10;} .st79{fill:#B3B3B3;} .st80{fill:none;stroke:#000000;stroke-width:1.5;stroke-miterlimit:10;} .st81{fill:none;stroke:#754C24;stroke-width:3;stroke-miterlimit:10;} .st82{fill:#C5C2BA;} .st83{fill:#E62B0F;} .st84{fill:#F2E336;} .st85{fill:#96AB5F;} .st86{fill:#C0996D;} .st87{fill:#573E31;} .st88{fill:none;stroke:#754C24;stroke-width:2;stroke-linecap:round;stroke-miterlimit:10;} .st89{fill:#534741;} .st90{fill:#F8B26A;} .st91{fill:#F8B26A;stroke:#F2F2F2;stroke-width:0.4104;stroke-miterlimit:10;} .st92{fill:none;stroke:#FFFFFF;stroke-width:1.8418;stroke-miterlimit:10;} .st93{fill:#F73D7E;stroke:#FFFFFF;stroke-width:1.5;stroke-miterlimit:10;} .st94{fill:#F8B26A;stroke:#FFFFFF;stroke-width:2.2377;stroke-miterlimit:10;} .st95{fill:#C33737;stroke:#FFFFFF;stroke-width:1.1035;stroke-miterlimit:10;} .st96{fill:none;stroke:#333333;stroke-width:3.876;stroke-miterlimit:10;} .st97{fill:#31F294;} .st98{fill:#66503A;} .st99{fill:#E15C65;}</style><g class="ld ld-blink" style="transform-origin: 50px 50px 0px; animation-duration: 1s; animation-delay: -0.96s; animation-direction: normal;"><circle class="st14" cx="27.778" cy="20.89" r="10.89" fill="rgb(255, 194, 138)" style="fill: rgb(255, 194, 138);"/></g><g class="ld ld-blink" style="transform-origin: 50px 50px 0px; animation-duration: 1s; animation-delay: -0.92s; animation-direction: normal;"><path class="st14" d="M21.944,90L21.944,90c-2.286,0-4.14-1.854-4.14-4.14V70.38c0-2.286,1.854-4.14,4.14-4.14h0 c2.286,0,4.14,1.854,4.14,4.14v15.48C26.084,88.146,24.23,90,21.944,90z" fill="rgb(255, 194, 138)" style="fill: rgb(255, 194, 138);"/></g><g class="ld ld-blink" style="transform-origin: 50px 50px 0px; animation-duration: 1s; animation-delay: -0.88s; animation-direction: normal;"><path class="st14" d="M33.611,90L33.611,90c-2.286,0-4.14-1.854-4.14-4.14V70.38c0-2.286,1.854-4.14,4.14-4.14h0 c2.286,0,4.14,1.854,4.14,4.14v15.48C37.751,88.146,35.898,90,33.611,90z" fill="rgb(255, 194, 138)" style="fill: rgb(255, 194, 138);"/></g><g class="ld ld-blink" style="transform-origin: 50px 50px 0px; animation-duration: 1s; animation-delay: -0.84s; animation-direction: normal;"><path class="st14" d="M7.64,55.765L7.64,55.765c-1.873-1.311-2.329-3.893-1.018-5.766L16.352,36.1 c1.311-1.873,3.893-2.329,5.766-1.017l0,0c1.873,1.311,2.329,3.893,1.017,5.766l-9.729,13.899 C12.095,56.62,9.513,57.076,7.64,55.765z" fill="rgb(255, 194, 138)" style="fill: rgb(255, 194, 138);"/></g><g class="ld ld-blink" style="transform-origin: 50px 50px 0px; animation-duration: 1s; animation-delay: -0.8s; animation-direction: normal;"><path class="st14" d="M47.915,55.764L47.915,55.764c1.873-1.311,2.329-3.893,1.018-5.766L39.204,36.1 c-1.311-1.873-3.893-2.329-5.766-1.017l0,0c-1.873,1.311-2.329,3.893-1.017,5.766l9.729,13.899 C43.461,56.62,46.042,57.076,47.915,55.764z" fill="rgb(255, 194, 138)" style="fill: rgb(255, 194, 138);"/></g><g class="ld ld-blink" style="transform-origin: 50px 50px 0px; animation-duration: 1s; animation-delay: -0.76s; animation-direction: normal;"><path d="M41.578,39.492l-4.632-6.617c-0.016-0.023-0.032-0.046-0.048-0.069l-0.068-0.098l0,0c-0.875-1.202-2.291-1.986-3.891-1.986 H22.617c-1.6,0-3.016,0.784-3.891,1.986l0,0l-0.068,0.097c-0.016,0.023-0.033,0.046-0.048,0.069l-4.356,6.223l3.551,2.485v22.883 h19.947V42.17L41.578,39.492z" fill="rgb(0, 0, 0)" style="fill: rgb(0, 0, 0);"/></g><g class="ld ld-blink" style="transform-origin: 50px 50px 0px; animation-duration: 1s; animation-delay: -0.72s; animation-direction: normal;"><polygon class="st21" points="33.616,58.527 33.611,58.526 33.607,58.527 17.804,58.527 17.804,62.666 17.804,67.602 17.804,70.406 26.084,70.406 26.084,67.602 29.471,67.602 29.471,70.406 37.751,70.406 37.751,67.602 37.751,62.666 37.751,58.527 " fill="rgb(62, 77, 138)" style="fill: rgb(62, 77, 138);"/></g><g class="ld ld-blink" style="transform-origin: 50px 50px 0px; animation-duration: 1s; animation-delay: -0.68s; animation-direction: normal;"><circle class="st14" cx="72.222" cy="20.89" r="10.89" fill="rgb(255, 194, 138)" style="fill: rgb(255, 194, 138);"/></g><g class="ld ld-blink" style="transform-origin: 50px 50px 0px; animation-duration: 1s; animation-delay: -0.64s; animation-direction: normal;"><path class="st14" d="M66.389,90L66.389,90c-2.286,0-4.14-1.854-4.14-4.14V70.38c0-2.286,1.854-4.14,4.14-4.14h0 c2.286,0,4.14,1.854,4.14,4.14v15.48C70.528,88.146,68.675,90,66.389,90z" fill="rgb(255, 194, 138)" style="fill: rgb(255, 194, 138);"/></g><g class="ld ld-blink" style="transform-origin: 50px 50px 0px; animation-duration: 1s; animation-delay: -0.6s; animation-direction: normal;"><path class="st14" d="M78.056,90L78.056,90c-2.286,0-4.14-1.854-4.14-4.14V70.38c0-2.286,1.854-4.14,4.14-4.14h0 c2.286,0,4.14,1.854,4.14,4.14v15.48C82.196,88.146,80.342,90,78.056,90z" fill="rgb(255, 194, 138)" style="fill: rgb(255, 194, 138);"/></g><g class="ld ld-blink" style="transform-origin: 50px 50px 0px; animation-duration: 1s; animation-delay: -0.56s; animation-direction: normal;"><path class="st14" d="M52.085,55.765L52.085,55.765c-1.873-1.311-2.329-3.893-1.018-5.766L60.796,36.1 c1.311-1.873,3.893-2.329,5.766-1.017l0,0c1.873,1.311,2.329,3.893,1.017,5.766L57.85,54.747 C56.539,56.62,53.958,57.076,52.085,55.765z" fill="rgb(255, 194, 138)" style="fill: rgb(255, 194, 138);"/></g><g class="ld ld-blink" style="transform-origin: 50px 50px 0px; animation-duration: 1s; animation-delay: -0.52s; animation-direction: normal;"><path class="st14" d="M92.36,55.764L92.36,55.764c1.873-1.311,2.329-3.893,1.018-5.766L83.648,36.1 c-1.311-1.873-3.893-2.329-5.766-1.017l0,0c-1.873,1.311-2.329,3.893-1.017,5.766l9.729,13.899 C87.905,56.62,90.487,57.076,92.36,55.764z" fill="rgb(255, 194, 138)" style="fill: rgb(255, 194, 138);"/></g><g class="ld ld-blink" style="transform-origin: 50px 50px 0px; animation-duration: 1s; animation-delay: -0.48s; animation-direction: normal;"><path d="M82.196,58.527L82.196,58.527l0-16.357l3.826-2.678l-4.632-6.617c-0.016-0.023-0.032-0.046-0.048-0.069l-0.068-0.098l0,0 c-0.875-1.202-2.291-1.986-3.891-1.986H67.061c-1.6,0-3.016,0.784-3.891,1.986l0,0l-0.068,0.097 c-0.016,0.023-0.033,0.046-0.048,0.069l-4.356,6.223l3.551,2.485v16.944H82.196z" fill="rgb(0, 0, 0)" style="fill: rgb(0, 0, 0);"/></g><g class="ld ld-blink" style="transform-origin: 50px 50px 0px; animation-duration: 1s; animation-delay: -0.44s; animation-direction: normal;"><polygon class="st22" points="82.196,58.527 82.196,58.527 62.249,58.527 57.248,70.38 87.196,70.38 " fill="rgb(237, 30, 121)" style="fill: rgb(237, 30, 121);"/></g><g class="ld ld-blink" style="transform-origin: 50px 50px 0px; animation-duration: 1s; animation-delay: -0.4s; animation-direction: normal;"><path class="st26" d="M69.917,44.495c0-0.667-0.07-1.317-0.201-1.946c-0.898-4.322-4.727-7.57-9.315-7.57 c-1.969,0-3.798,0.598-5.316,1.622c-1.212,0.818-2.219,1.911-2.946,3.185c-0.728-1.274-1.735-2.367-2.946-3.185 c-1.518-1.024-3.347-1.622-5.316-1.622c-4.588,0-8.417,3.248-9.315,7.57c-0.131,0.628-0.201,1.279-0.201,1.946 c0,0.146,0.01,0.289,0.016,0.433c-0.001,0.07-0.005,0.14-0.005,0.211c0,9.83,17.767,22.549,17.767,22.549 s17.767-12.719,17.767-22.549c0-0.071-0.005-0.14-0.005-0.211C69.907,44.784,69.917,44.641,69.917,44.495z" fill="rgb(237, 28, 36)" style="fill: rgb(237, 28, 36);"/></g><metadata xmlns:d="https://loading.io/stock/" class="ld ld-blink" style="transform-origin: 50px 50px 0px; animation-duration: 1s; animation-delay: -0.36s; animation-direction: normal;">
<d:name class="ld ld-blink" style="transform-origin: 50px 50px 0px; animation-duration: 1s; animation-delay: -0.32s; animation-direction: normal;">date</d:name>
<d:tags class="ld ld-blink" style="transform-origin: 50px 50px 0px; animation-duration: 1s; animation-delay: -0.28s; animation-direction: normal;">love,engage,marry,like,couple,date,people</d:tags>
<d:license class="ld ld-blink" style="transform-origin: 50px 50px 0px; animation-duration: 1s; animation-delay: -0.24s; animation-direction: normal;">rf</d:license>
<d:slug class="ld ld-blink" style="transform-origin: 50px 50px 0px; animation-duration: 1s; animation-delay: -0.2s; animation-direction: normal;">xnsxfy</d:slug>
</metadata></g></g></g></g><style type="text/css" class="ld ld-blink" style="transform-origin: 50px 50px 0px; animation-duration: 1s; animation-delay: -0.16s; animation-direction: normal;">path,ellipse,circle,rect,polygon,polyline,line { stroke-width: 0; }@keyframes ld-blink {
  0% {
    opacity: 1;
  }
  49% {
    opacity: 1;
  }
  50% {
    opacity: 0;
  }
  100% {
    opacity: 0;
  }
}
@-webkit-keyframes ld-blink {
  0% {
    opacity: 1;
  }
  49% {
    opacity: 1;
  }
  50% {
    opacity: 0;
  }
  100% {
    opacity: 0;
  }
}
.ld.ld-blink {
  -webkit-animation: ld-blink 1s infinite linear;
  animation: ld-blink 1s infinite linear;
}
</style></svg></svg>